<svg width="32" height="32" viewBox="0 0 32 32" fill="none" xmlns="http://www.w3.org/2000/svg">
<path d="M4.59614 9.30965H17.759C17.7977 9.30967 17.8359 9.30068 17.8706 9.28339C17.9053 9.2661 17.9356 9.24097 17.959 9.21C18.6314 8.312 19.2321 7.53603 19.7608 6.88208C19.9981 6.58923 20.1174 6.33501 19.9249 6.01165C18.2636 3.2214 17.2343 1.48891 16.837 0.814169C16.6242 0.453525 16.5082 0.262581 16.4893 0.24134C16.1706 -0.105068 15.5436 -0.0847295 15.2853 0.342349C14.7737 1.18747 14.2413 2.06151 13.6882 2.96448C13.6222 3.07204 13.6068 3.15881 13.6421 3.22479C13.6483 3.23676 13.6579 3.24686 13.6699 3.25394L15.0623 4.04031C15.0793 4.04985 15.0994 4.05229 15.1182 4.04708C15.137 4.04188 15.1529 4.02945 15.1626 4.01252L15.8907 2.75229C15.8946 2.74552 15.9003 2.73989 15.9071 2.73595C15.9139 2.73202 15.9216 2.72992 15.9295 2.72985C15.9373 2.72978 15.9451 2.73175 15.9519 2.73556C15.9588 2.73938 15.9645 2.74491 15.9686 2.75162L17.9854 6.10724C18.0001 6.13178 18.0071 6.16024 18.0053 6.18881C18.0034 6.21739 17.993 6.24474 17.9752 6.26722L17.0072 7.49355C16.9867 7.51953 16.9605 7.54053 16.9307 7.55498C16.9009 7.56942 16.8682 7.57692 16.835 7.57693C12.4078 7.5819 8.07898 7.58258 3.84842 7.57896C3.61838 7.57851 3.30835 7.58009 2.91833 7.58371C2.7231 7.58552 2.58729 7.60337 2.51091 7.63726C2.06892 7.83114 2.02418 8.35313 2.23569 8.7375C2.79383 9.74758 3.27785 10.6304 3.68775 11.3861C3.70047 11.4095 3.72179 11.427 3.74714 11.4348C3.77249 11.4427 3.79985 11.4403 3.82333 11.4281C4.30058 11.1804 4.70935 10.9538 5.04966 10.7482C5.1771 10.6709 5.23134 10.6173 5.15677 10.4702C4.99678 10.1539 4.80064 9.7826 4.56835 9.35643C4.56579 9.3516 4.56452 9.34619 4.56465 9.34073C4.56478 9.33527 4.56632 9.32993 4.56911 9.32523C4.5719 9.32054 4.57586 9.31664 4.58059 9.31391C4.58532 9.31118 4.59068 9.30971 4.59614 9.30965Z" fill="white"/>
<path d="M29.2514 15.6236L25.727 17.6587C25.706 17.6707 25.6819 17.6762 25.6577 17.6744C25.6335 17.6726 25.6105 17.6635 25.5915 17.6485C24.9285 17.1252 24.5592 16.8334 24.4838 16.7733C24.4137 16.7173 24.3638 16.6558 24.3339 16.5889C24.3322 16.5845 24.3312 16.5796 24.3312 16.5747C24.3294 15.7987 24.3299 11.1782 24.3326 2.71295C24.3326 2.35027 24.1299 2.04047 23.7598 1.97268C23.5591 1.93607 23.3923 1.95392 23.2595 2.02623C22.2535 2.57534 21.3008 3.07902 20.4014 3.53728C20.3906 3.54279 20.3809 3.55041 20.373 3.5597C20.3652 3.56899 20.3592 3.57976 20.3556 3.59138C20.3519 3.603 20.3506 3.61523 20.3517 3.62736C20.3528 3.63949 20.3564 3.65127 20.3621 3.66201C20.5885 4.08864 20.8098 4.49448 21.0258 4.87953C21.1065 5.02256 21.1309 5.13713 21.3105 5.04494C21.6833 4.85377 22.0759 4.64723 22.488 4.42533C22.512 4.41223 22.5357 4.40409 22.5592 4.40093C22.5637 4.40034 22.5683 4.40072 22.5727 4.40202C22.577 4.40333 22.581 4.40553 22.5844 4.40849C22.5878 4.41144 22.5906 4.41508 22.5924 4.41916C22.5942 4.42323 22.5952 4.42765 22.5951 4.43211V17.4221C22.5951 17.4499 22.6013 17.4773 22.6133 17.5025C22.6252 17.5277 22.6426 17.55 22.6643 17.5678C23.5085 18.2566 24.3199 18.9191 25.0986 19.5555C25.3038 19.7231 25.5121 19.7487 25.7236 19.6321C26.4906 19.2113 28.4418 18.1023 31.5773 16.3049C31.8878 16.1273 32.0272 15.8851 31.9956 15.5782C31.9644 15.2677 31.841 15.1091 31.5685 14.9416C30.9209 14.543 29.9904 13.9661 28.7769 13.211C28.7658 13.2041 28.7534 13.1995 28.7405 13.1975C28.7276 13.1955 28.7144 13.1962 28.7017 13.1994C28.689 13.2026 28.677 13.2083 28.6665 13.2163C28.6561 13.2242 28.6473 13.2341 28.6407 13.2455L27.8441 14.6257C27.8366 14.6385 27.8318 14.6527 27.8298 14.6674C27.8278 14.6821 27.8288 14.6971 27.8326 14.7114C27.8365 14.7258 27.8431 14.7393 27.8522 14.7511C27.8613 14.7629 27.8726 14.7728 27.8855 14.7803L29.2514 15.5687C29.2562 15.5715 29.2602 15.5755 29.2629 15.5803C29.2657 15.5852 29.2671 15.5906 29.2671 15.5962C29.2671 15.6017 29.2657 15.6072 29.2629 15.612C29.2602 15.6168 29.2562 15.6208 29.2514 15.6236Z" fill="white"/>
<path d="M9.32038 4.52705C9.32043 4.51747 9.32299 4.50807 9.3278 4.49978C9.33261 4.4915 9.3395 4.48461 9.3478 4.47981C9.35609 4.47502 9.36549 4.47247 9.37507 4.47243C9.38465 4.4724 9.39408 4.47487 9.40241 4.4796L13.4841 6.83599C13.5148 6.85377 13.5513 6.85884 13.5858 6.8501C13.6202 6.84136 13.6499 6.81951 13.6684 6.78921C13.8772 6.44574 14.0971 6.05866 14.328 5.62796C14.3393 5.60672 14.3628 5.56876 14.3986 5.51408C14.46 5.41917 14.4379 5.34211 14.3321 5.28291C12.4588 4.23352 10.6143 3.19158 8.7984 2.1571C8.42081 1.94221 7.89001 1.98424 7.66698 2.40386C7.61591 2.49967 7.59173 2.66982 7.59444 2.91432C7.59851 3.29666 7.60122 4.34786 7.60258 6.06792C7.60258 6.08806 7.61058 6.10737 7.62482 6.12161C7.63905 6.13585 7.65837 6.14385 7.6785 6.14385H9.25463C9.27207 6.14385 9.28879 6.13699 9.30112 6.12479C9.31345 6.11258 9.32038 6.09603 9.32038 6.07877V4.52705Z" fill="white"/>
<path d="M27.3642 9.18965L25.0871 13.133C25.0803 13.1448 25.0759 13.1577 25.0741 13.1712C25.0724 13.1846 25.0733 13.1983 25.0768 13.2114C25.0803 13.2245 25.0864 13.2368 25.0947 13.2475C25.103 13.2583 25.1133 13.2673 25.1251 13.274L26.4483 14.038C26.4686 14.0499 26.4928 14.0532 26.5156 14.0472C26.5383 14.0412 26.5578 14.0265 26.5697 14.0062C28.1926 11.2087 29.1943 9.4798 29.5748 8.81952C29.7077 8.58903 29.7841 8.42385 29.8039 8.32397C29.909 7.80402 29.5782 7.3844 29.0311 7.38982C28.1268 7.39841 27.1167 7.40067 26.0009 7.3966C25.8933 7.39615 25.8163 7.39954 25.7697 7.40677C25.7571 7.40871 25.7456 7.41511 25.7373 7.42481C25.7289 7.43451 25.7243 7.44686 25.7243 7.45965V9.07577C25.7243 9.09303 25.7311 9.10958 25.7432 9.12179C25.7553 9.13399 25.7716 9.14085 25.7887 9.14085H27.3357C27.3414 9.14079 27.3471 9.14226 27.3521 9.14509C27.3571 9.14793 27.3612 9.15203 27.3641 9.15699C27.367 9.16194 27.3685 9.16758 27.3685 9.17331C27.3685 9.17905 27.367 9.18469 27.3642 9.18965Z" fill="white"/>
<path d="M19.9234 10.218C19.9125 10.218 19.9019 10.2224 19.8942 10.2301C19.8864 10.2379 19.8821 10.2484 19.8821 10.2594V15.345C19.8821 15.3538 19.885 15.3623 19.8902 15.3694L21.5118 17.54C21.517 17.5471 21.5243 17.5523 21.5326 17.5549C21.5409 17.5575 21.5499 17.5574 21.5582 17.5546C21.5664 17.5518 21.5736 17.5465 21.5787 17.5394C21.5837 17.5322 21.5864 17.5237 21.5863 17.515V10.2594C21.5863 10.2484 21.582 10.2379 21.5742 10.2301C21.5665 10.2224 21.5559 10.218 21.545 10.218H19.9234Z" fill="white"/>
<path d="M13.1512 10.2601C13.1603 10.2927 13.1752 10.3232 13.196 10.3516C14.6399 12.3343 15.3921 13.3672 15.4527 13.4503C17.3675 16.0833 19.2686 18.6535 21.1559 21.1608C21.1678 21.1762 21.1844 21.1874 21.2033 21.1927C21.3055 21.2193 21.4243 21.2198 21.5599 21.194C21.571 21.192 21.581 21.1861 21.5882 21.1774C21.5953 21.1687 21.5993 21.1578 21.5992 21.1466V18.9366C21.5992 18.88 21.5798 18.825 21.5443 18.7807C21.03 18.1425 20.5094 17.4626 19.9824 16.7409C18.3451 14.4984 16.8157 12.3833 15.3944 10.3957C15.3203 10.2922 15.2498 10.2407 15.1829 10.2411C14.4508 10.2475 13.7799 10.2457 13.1702 10.2357C13.1672 10.2357 13.1643 10.2364 13.1616 10.2377C13.1589 10.2391 13.1566 10.241 13.1548 10.2433C13.1529 10.2457 13.1517 10.2484 13.1511 10.2513C13.1504 10.2542 13.1505 10.2572 13.1512 10.2601Z" fill="white"/>
<path d="M12.1275 15.5017C12.1582 15.5206 12.1907 15.5539 12.2251 15.6013C12.875 16.5052 14.2326 18.3558 16.2979 21.1533C16.3127 21.1733 16.3319 21.1895 16.354 21.2007C16.3761 21.2119 16.4006 21.2177 16.4254 21.2177H18.3771C18.3834 21.2177 18.3895 21.2159 18.3949 21.2127C18.4003 21.2094 18.4047 21.2048 18.4077 21.1993C18.4106 21.1937 18.4119 21.1875 18.4116 21.1814C18.4112 21.1752 18.4091 21.1692 18.4055 21.1642C18.086 20.6987 17.8137 20.3134 17.5886 20.0084C16.3711 18.3588 14.7275 16.1314 12.6576 13.3263C11.7957 12.158 11.1784 11.3192 10.8056 10.8099C10.693 10.6558 10.5645 10.5035 10.4198 10.353C10.417 10.3501 10.4133 10.3481 10.4094 10.3473C10.4054 10.3464 10.4013 10.3467 10.3976 10.3482C10.3938 10.3497 10.3907 10.3522 10.3885 10.3555C10.3863 10.3587 10.3852 10.3626 10.3853 10.3665V21.133C10.3853 21.1444 10.3875 21.1557 10.3919 21.1662C10.3962 21.1767 10.4026 21.1863 10.4107 21.1943C10.4187 21.2024 10.4283 21.2088 10.4388 21.2132C10.4494 21.2175 10.4606 21.2198 10.472 21.2198H12.0204C12.0286 21.2198 12.0368 21.2181 12.0445 21.215C12.0521 21.2118 12.0591 21.2072 12.0649 21.2013C12.0708 21.1954 12.0754 21.1885 12.0786 21.1808C12.0818 21.1732 12.0834 21.165 12.0834 21.1567V15.5261C12.0833 15.5209 12.0846 15.5158 12.0872 15.5113C12.0898 15.5068 12.0935 15.5031 12.0981 15.5006C12.1026 15.4981 12.1077 15.4968 12.1129 15.497C12.1181 15.4972 12.1231 15.4988 12.1275 15.5017Z" fill="white"/>
<path d="M9.39497 27.0131C9.38729 26.9865 9.38367 26.949 9.38412 26.9006C9.3909 25.1078 9.39339 20.9003 9.39158 14.278C9.39158 13.9913 9.41327 13.8767 9.20584 13.7222C8.52115 13.2119 7.74518 12.5937 6.87792 11.8674C6.65738 11.6826 6.42034 11.6638 6.1668 11.8112C5.16441 12.396 3.27125 13.4808 0.487334 15.0658C0.221597 15.2169 0.0338167 15.3579 0.00534477 15.6481C-0.0294542 16.0033 0.105675 16.2738 0.410731 16.4595C1.31641 17.0109 2.22276 17.5697 3.1298 18.136C3.15732 18.153 3.18972 18.1603 3.22181 18.1567C3.25389 18.1532 3.2838 18.1389 3.30673 18.1163C3.34424 18.0802 3.39056 18.0153 3.4457 17.9218C3.63416 17.6032 3.85018 17.2373 4.09377 16.8242C4.15885 16.714 4.1401 16.6308 4.03751 16.5748C3.41384 16.2318 3.01998 16.0033 2.76102 15.8386C2.75474 15.8346 2.74961 15.8291 2.74613 15.8225C2.74264 15.8159 2.74092 15.8085 2.74112 15.801C2.74133 15.7936 2.74345 15.7862 2.74729 15.7797C2.75113 15.7733 2.75656 15.7678 2.76305 15.764L6.20408 13.7778C6.23604 13.7591 6.27288 13.7506 6.30977 13.7533C6.34666 13.7559 6.38189 13.7697 6.41084 13.7927L7.6209 14.7478C7.63739 14.761 7.65071 14.7776 7.65986 14.7965C7.66902 14.8154 7.67377 14.8361 7.67378 14.857C7.667 18.8674 7.66203 23.3782 7.65886 28.3893C7.65886 28.7919 7.63039 29.1106 7.92731 29.3275C8.20345 29.5295 8.50082 29.5437 8.81943 29.3702C9.74454 28.8658 10.6477 28.38 11.529 27.9127C11.5425 27.9056 11.5545 27.8959 11.5641 27.8841C11.5737 27.8723 11.5809 27.8586 11.5851 27.8439C11.5894 27.8293 11.5906 27.8138 11.5888 27.7986C11.5869 27.7834 11.5821 27.7687 11.5744 27.7554L10.8253 26.4573C10.8081 26.4274 10.78 26.4054 10.7468 26.3959C10.7137 26.3864 10.6782 26.3902 10.6477 26.4064L9.44988 27.0369C9.44488 27.0396 9.43933 27.0411 9.43363 27.0414C9.42793 27.0416 9.42223 27.0406 9.41696 27.0383C9.41168 27.036 9.40697 27.0326 9.40316 27.0282C9.39936 27.0239 9.39656 27.0187 9.39497 27.0131Z" fill="white"/>
<path d="M6.22978 23.9842V22.3843C6.22978 22.3649 6.22199 22.3463 6.20814 22.3326C6.19428 22.3188 6.17548 22.3111 6.15589 22.3111H4.68687C4.67931 22.3111 4.67185 22.3093 4.66514 22.3059C4.65842 22.3024 4.65266 22.2973 4.64832 22.2911C4.64399 22.2849 4.64123 22.2778 4.64027 22.2703C4.6393 22.2628 4.64018 22.2552 4.64281 22.2481C4.65411 22.2173 4.6636 22.1952 4.67128 22.1816C5.56069 20.6681 6.27203 19.4529 6.80532 18.5359C6.85774 18.4455 6.9009 18.3531 6.9348 18.2586C6.94493 18.2305 6.94492 18.1997 6.93477 18.1716C6.92461 18.1435 6.90496 18.1199 6.87921 18.1047C6.57596 17.9249 6.18368 17.7032 5.70237 17.4397C5.61153 17.3904 5.5347 17.3755 5.47188 17.395C5.46181 17.3985 5.45337 17.4054 5.44816 17.4146C4.45119 19.1663 3.42304 20.9334 2.3637 22.7158C2.24032 22.9233 2.17276 23.076 2.16101 23.1741C2.12169 23.4995 2.28642 23.852 2.59961 23.9869C2.69813 24.0294 2.85518 24.0508 3.07075 24.0513C4.07495 24.0531 5.10446 24.0542 6.15928 24.0547C6.17797 24.0547 6.19591 24.0473 6.20913 24.034C6.22235 24.0208 6.22978 24.0029 6.22978 23.9842Z" fill="white"/>
<path d="M27.3627 22.1735C27.3609 22.1744 27.3468 22.1749 27.3206 22.1749C21.342 22.1916 17.0271 22.1921 14.3761 22.1762C14.2441 22.1753 14.1551 22.2054 14.109 22.2664C13.3163 23.3212 12.6305 24.1948 12.0516 24.8872C11.8902 25.0802 11.8823 25.2951 12.0278 25.5319C12.6985 26.6224 13.8078 28.4789 15.3557 31.1015C15.5936 31.5042 16.0363 31.6486 16.4362 31.3835C16.5329 31.3194 16.6439 31.1847 16.7691 30.9795C17.6495 29.5328 18.1565 28.6936 18.2903 28.4618C18.3631 28.3357 18.3355 28.2374 18.2076 28.1669C17.8067 27.945 17.3738 27.6989 16.9087 27.4286C16.8882 27.4168 16.8639 27.4136 16.841 27.4197C16.8181 27.4258 16.7986 27.4407 16.7867 27.4612L16.0586 28.7221C16.0544 28.7294 16.0483 28.7355 16.0409 28.7398C16.0336 28.7441 16.0253 28.7463 16.0168 28.7464C16.0083 28.7465 16 28.7443 15.9926 28.7402C15.9852 28.736 15.979 28.73 15.9746 28.7228C15.1841 27.3755 14.5431 26.3038 14.0514 25.5075C13.9876 25.4044 13.9709 25.312 14.0012 25.2302C14.0102 25.2053 14.0701 25.1269 14.1809 24.995C14.476 24.6425 14.7544 24.3053 15.016 23.9835C15.0558 23.9347 15.1295 23.9103 15.237 23.9103C24.1736 23.9063 28.7006 23.9035 28.8181 23.9022C29.0843 23.8986 29.249 23.8913 29.3123 23.8805C29.7021 23.812 29.9075 23.4365 29.8743 23.0711C29.8639 22.954 29.788 22.7735 29.6465 22.5294C29.3763 22.063 28.909 21.227 28.2446 20.0212C28.2324 19.9988 28.2118 19.9821 28.1874 19.9747C28.1631 19.9673 28.1368 19.9699 28.1145 19.9819L26.7668 20.6916C26.7504 20.7004 26.738 20.7151 26.7324 20.7328C26.7268 20.7504 26.7285 20.7695 26.737 20.7859L27.3871 22.08C27.395 22.096 27.3968 22.1143 27.3924 22.1315C27.3879 22.1487 27.3773 22.1636 27.3627 22.1735Z" fill="white"/>
<path d="M22.6683 26.929C22.6684 26.9358 22.6666 26.9425 22.6633 26.9483C22.6599 26.9542 22.6551 26.9591 22.6493 26.9626C22.6434 26.966 22.6368 26.9678 22.63 26.9679C22.6233 26.968 22.6166 26.9662 22.6107 26.9629C21.4524 26.3243 20.1031 25.5671 18.5629 24.6913C18.4292 24.6153 18.3273 24.6407 18.2572 24.7672C18.0805 25.0858 17.8627 25.4926 17.6037 25.9874C17.5553 26.0796 17.5836 26.1549 17.6884 26.2132C19.4682 27.2052 21.3046 28.2329 23.1978 29.2963C23.6587 29.5552 24.2255 29.4061 24.3902 28.8766C24.4083 28.8179 24.4169 28.5955 24.416 28.2096C24.4128 27.0725 24.4112 26.1451 24.4112 25.4275C24.4112 25.4028 24.4013 25.3792 24.3838 25.3618C24.3663 25.3444 24.3425 25.3346 24.3177 25.3346H22.7185C22.7052 25.3346 22.6924 25.3399 22.683 25.3493C22.6736 25.3587 22.6683 25.3715 22.6683 25.3848V26.929Z" fill="white"/>
<path d="M4.59614 9.30965C4.59068 9.30971 4.58532 9.31118 4.58059 9.31391C4.57586 9.31664 4.5719 9.32054 4.56911 9.32523C4.56632 9.32993 4.56478 9.33527 4.56465 9.34073C4.56452 9.34619 4.56579 9.3516 4.56835 9.35643C4.80064 9.7826 4.99678 10.1539 5.15677 10.4702C5.23134 10.6173 5.1771 10.6709 5.04966 10.7482C4.70935 10.9538 4.30058 11.1804 3.82333 11.4281C3.79985 11.4403 3.77249 11.4427 3.74714 11.4348C3.72179 11.427 3.70047 11.4095 3.68775 11.3861C3.27785 10.6304 2.79383 9.74758 2.23569 8.7375C2.02418 8.35313 2.06892 7.83114 2.51091 7.63726C2.58729 7.60337 2.7231 7.58552 2.91833 7.58371C3.30835 7.58009 3.61838 7.57851 3.84842 7.57896C8.07898 7.58258 12.4078 7.5819 16.835 7.57693C16.8682 7.57692 16.9009 7.56942 16.9307 7.55498C16.9605 7.54053 16.9867 7.51953 17.0072 7.49355L17.9752 6.26722C17.993 6.24474 18.0034 6.21739 18.0053 6.18881C18.0071 6.16024 18.0001 6.13178 17.9854 6.10724L15.9686 2.75162C15.9645 2.74491 15.9588 2.73938 15.9519 2.73556C15.9451 2.73175 15.9373 2.72978 15.9295 2.72985C15.9216 2.72992 15.9139 2.73202 15.9071 2.73595C15.9003 2.73989 15.8946 2.74552 15.8907 2.75229L15.1626 4.01252C15.1529 4.02945 15.137 4.04188 15.1182 4.04708C15.0994 4.05229 15.0793 4.04985 15.0623 4.04031L13.6699 3.25394C13.6579 3.24686 13.6483 3.23676 13.6421 3.22479C13.6068 3.15881 13.6222 3.07204 13.6882 2.96448C14.2413 2.06151 14.7737 1.18747 15.2853 0.342349C15.5436 -0.0847295 16.1706 -0.105068 16.4893 0.24134C16.5082 0.262581 16.6242 0.453525 16.837 0.814169C17.2343 1.48891 18.2636 3.2214 19.9249 6.01165C20.1174 6.33501 19.9981 6.58923 19.7608 6.88208C19.2321 7.53603 18.6314 8.312 17.959 9.21C17.9356 9.24097 17.9053 9.2661 17.8706 9.28339C17.8359 9.30068 17.7977 9.30967 17.759 9.30965H4.59614Z" fill="white"/>
<path d="M29.2514 15.6236C29.2562 15.6208 29.2602 15.6168 29.2629 15.612C29.2657 15.6072 29.2671 15.6017 29.2671 15.5962C29.2671 15.5906 29.2657 15.5852 29.2629 15.5803C29.2602 15.5755 29.2562 15.5715 29.2514 15.5687L27.8855 14.7803C27.8726 14.7728 27.8613 14.7629 27.8522 14.7511C27.8431 14.7393 27.8365 14.7258 27.8326 14.7114C27.8288 14.6971 27.8278 14.6821 27.8298 14.6674C27.8318 14.6527 27.8366 14.6385 27.8441 14.6257L28.6407 13.2455C28.6473 13.2341 28.6561 13.2242 28.6665 13.2163C28.677 13.2083 28.689 13.2026 28.7017 13.1994C28.7144 13.1962 28.7276 13.1955 28.7405 13.1975C28.7534 13.1995 28.7658 13.2041 28.7769 13.211C29.9904 13.9661 30.9209 14.543 31.5685 14.9416C31.841 15.1091 31.9644 15.2677 31.9956 15.5782C32.0272 15.8851 31.8878 16.1273 31.5773 16.3049C28.4418 18.1023 26.4906 19.2113 25.7236 19.6321C25.5121 19.7487 25.3038 19.7231 25.0986 19.5555C24.3199 18.9191 23.5085 18.2566 22.6643 17.5678C22.6426 17.55 22.6252 17.5277 22.6133 17.5025C22.6013 17.4773 22.5951 17.4499 22.5951 17.4221V4.43211C22.5952 4.42765 22.5942 4.42323 22.5924 4.41916C22.5906 4.41508 22.5878 4.41144 22.5844 4.40849C22.581 4.40553 22.577 4.40333 22.5727 4.40202C22.5683 4.40072 22.5637 4.40034 22.5592 4.40093C22.5357 4.40409 22.512 4.41223 22.488 4.42533C22.0759 4.64723 21.6833 4.85377 21.3105 5.04494C21.1309 5.13713 21.1065 5.02256 21.0258 4.87953C20.8098 4.49448 20.5885 4.08864 20.3621 3.66201C20.3564 3.65127 20.3528 3.63949 20.3517 3.62736C20.3506 3.61523 20.3519 3.603 20.3556 3.59138C20.3592 3.57976 20.3652 3.56899 20.373 3.5597C20.3809 3.55041 20.3906 3.54279 20.4014 3.53728C21.3008 3.07902 22.2535 2.57534 23.2595 2.02623C23.3923 1.95392 23.5591 1.93607 23.7598 1.97268C24.1299 2.04047 24.3326 2.35027 24.3326 2.71295C24.3299 11.1782 24.3294 15.7987 24.3312 16.5747C24.3312 16.5796 24.3322 16.5845 24.3339 16.5889C24.3638 16.6558 24.4137 16.7173 24.4838 16.7733C24.5592 16.8334 24.9285 17.1252 25.5915 17.6485C25.6105 17.6635 25.6335 17.6726 25.6577 17.6744C25.6819 17.6762 25.706 17.6707 25.727 17.6587L29.2514 15.6236Z" fill="white"/>
<path d="M9.32038 4.52705V6.07877C9.32038 6.09603 9.31345 6.11258 9.30112 6.12479C9.28879 6.13699 9.27207 6.14385 9.25463 6.14385H7.6785C7.65837 6.14385 7.63905 6.13585 7.62482 6.12161C7.61058 6.10737 7.60258 6.08806 7.60258 6.06792C7.60122 4.34786 7.59851 3.29666 7.59444 2.91432C7.59173 2.66982 7.61591 2.49967 7.66698 2.40386C7.89001 1.98424 8.42081 1.94221 8.7984 2.1571C10.6143 3.19158 12.4588 4.23352 14.3321 5.28291C14.4379 5.34211 14.46 5.41917 14.3986 5.51408C14.3628 5.56876 14.3393 5.60672 14.328 5.62796C14.0971 6.05866 13.8772 6.44574 13.6684 6.78921C13.6499 6.81951 13.6202 6.84136 13.5858 6.8501C13.5513 6.85884 13.5148 6.85377 13.4841 6.83599L9.40241 4.4796C9.39408 4.47487 9.38465 4.4724 9.37507 4.47243C9.36549 4.47247 9.35609 4.47502 9.3478 4.47981C9.3395 4.48461 9.33261 4.4915 9.3278 4.49978C9.32299 4.50807 9.32043 4.51747 9.32038 4.52705Z" fill="white"/>
<path d="M27.3642 9.18965C27.367 9.18469 27.3685 9.17905 27.3685 9.17331C27.3685 9.16758 27.367 9.16194 27.3641 9.15699C27.3612 9.15203 27.3571 9.14793 27.3521 9.14509C27.3471 9.14226 27.3414 9.14079 27.3357 9.14085H25.7887C25.7716 9.14085 25.7553 9.13399 25.7432 9.12179C25.7311 9.10958 25.7243 9.09303 25.7243 9.07577V7.45965C25.7243 7.44686 25.7289 7.43451 25.7373 7.42481C25.7456 7.41511 25.7571 7.40871 25.7697 7.40677C25.8163 7.39954 25.8933 7.39615 26.0009 7.3966C27.1167 7.40067 28.1268 7.39841 29.0311 7.38982C29.5782 7.3844 29.909 7.80402 29.8039 8.32397C29.7841 8.42385 29.7077 8.58903 29.5748 8.81952C29.1943 9.4798 28.1926 11.2087 26.5697 14.0062C26.5578 14.0265 26.5383 14.0412 26.5156 14.0472C26.4928 14.0532 26.4686 14.0499 26.4483 14.038L25.1251 13.274C25.1133 13.2673 25.103 13.2583 25.0947 13.2475C25.0864 13.2368 25.0803 13.2245 25.0768 13.2114C25.0733 13.1983 25.0724 13.1846 25.0741 13.1712C25.0759 13.1577 25.0803 13.1448 25.0871 13.133L27.3642 9.18965Z" fill="white"/>
<path d="M19.9234 10.218H21.545C21.5559 10.218 21.5665 10.2224 21.5742 10.2301C21.582 10.2379 21.5863 10.2484 21.5863 10.2594V17.515C21.5864 17.5237 21.5837 17.5322 21.5787 17.5394C21.5736 17.5465 21.5664 17.5518 21.5582 17.5546C21.5499 17.5574 21.5409 17.5575 21.5326 17.5549C21.5243 17.5523 21.517 17.5471 21.5118 17.54L19.8902 15.3694C19.885 15.3623 19.8821 15.3538 19.8821 15.345V10.2594C19.8821 10.2484 19.8864 10.2379 19.8942 10.2301C19.9019 10.2224 19.9125 10.218 19.9234 10.218Z" fill="white"/>
<path d="M13.1512 10.2601C13.1505 10.2572 13.1504 10.2542 13.1511 10.2513C13.1517 10.2484 13.1529 10.2457 13.1548 10.2433C13.1566 10.241 13.1589 10.2391 13.1616 10.2377C13.1643 10.2364 13.1672 10.2357 13.1702 10.2357C13.7799 10.2457 14.4508 10.2475 15.1829 10.2411C15.2498 10.2407 15.3203 10.2922 15.3944 10.3957C16.8157 12.3833 18.3451 14.4984 19.9824 16.7409C20.5094 17.4626 21.03 18.1425 21.5443 18.7807C21.5798 18.825 21.5992 18.88 21.5992 18.9366V21.1466C21.5993 21.1578 21.5953 21.1687 21.5882 21.1774C21.581 21.1861 21.571 21.192 21.5599 21.194C21.4243 21.2198 21.3055 21.2193 21.2033 21.1927C21.1844 21.1874 21.1678 21.1762 21.1559 21.1608C19.2686 18.6535 17.3675 16.0833 15.4527 13.4503C15.3921 13.3672 14.6399 12.3343 13.196 10.3516C13.1752 10.3232 13.1603 10.2927 13.1512 10.2601Z" fill="white"/>
<path d="M12.1275 15.5017C12.1231 15.4988 12.1181 15.4972 12.1129 15.497C12.1077 15.4968 12.1026 15.4981 12.0981 15.5006C12.0935 15.5031 12.0898 15.5068 12.0872 15.5113C12.0846 15.5158 12.0833 15.5209 12.0834 15.5261V21.1567C12.0834 21.165 12.0818 21.1732 12.0786 21.1808C12.0754 21.1885 12.0708 21.1954 12.0649 21.2013C12.0591 21.2072 12.0521 21.2118 12.0445 21.215C12.0368 21.2181 12.0286 21.2198 12.0204 21.2198H10.472C10.4606 21.2198 10.4494 21.2175 10.4388 21.2132C10.4283 21.2088 10.4187 21.2024 10.4107 21.1943C10.4026 21.1863 10.3962 21.1767 10.3919 21.1662C10.3875 21.1557 10.3853 21.1444 10.3853 21.133V10.3665C10.3852 10.3626 10.3863 10.3587 10.3885 10.3555C10.3907 10.3522 10.3938 10.3497 10.3976 10.3482C10.4013 10.3467 10.4054 10.3464 10.4094 10.3473C10.4133 10.3481 10.417 10.3501 10.4198 10.353C10.5645 10.5035 10.693 10.6558 10.8056 10.8099C11.1784 11.3192 11.7957 12.158 12.6576 13.3263C14.7275 16.1314 16.3711 18.3588 17.5886 20.0084C17.8137 20.3134 18.086 20.6987 18.4055 21.1642C18.4091 21.1692 18.4112 21.1752 18.4116 21.1814C18.4119 21.1875 18.4106 21.1937 18.4077 21.1993C18.4047 21.2048 18.4003 21.2094 18.3949 21.2127C18.3895 21.2159 18.3834 21.2177 18.3771 21.2177H16.4254C16.4006 21.2177 16.3761 21.2119 16.354 21.2007C16.3319 21.1895 16.3127 21.1733 16.2979 21.1533C14.2326 18.3558 12.875 16.5052 12.2251 15.6013C12.1907 15.5539 12.1582 15.5206 12.1275 15.5017Z" fill="white"/>
<path d="M9.39497 27.0131C9.39656 27.0187 9.39936 27.0239 9.40316 27.0282C9.40697 27.0326 9.41168 27.036 9.41696 27.0383C9.42223 27.0406 9.42793 27.0416 9.43363 27.0414C9.43933 27.0411 9.44488 27.0396 9.44988 27.0369L10.6477 26.4064C10.6782 26.3902 10.7137 26.3864 10.7468 26.3959C10.78 26.4054 10.8081 26.4274 10.8253 26.4573L11.5744 27.7554C11.5821 27.7687 11.5869 27.7834 11.5888 27.7986C11.5906 27.8138 11.5894 27.8293 11.5851 27.8439C11.5809 27.8586 11.5737 27.8723 11.5641 27.8841C11.5545 27.8959 11.5425 27.9056 11.529 27.9127C10.6477 28.38 9.74454 28.8658 8.81943 29.3702C8.50082 29.5437 8.20345 29.5295 7.92731 29.3275C7.63039 29.1106 7.65886 28.7919 7.65886 28.3893C7.66203 23.3782 7.667 18.8674 7.67378 14.857C7.67377 14.8361 7.66902 14.8154 7.65986 14.7965C7.65071 14.7776 7.63739 14.761 7.6209 14.7478L6.41084 13.7927C6.38189 13.7697 6.34666 13.7559 6.30977 13.7533C6.27288 13.7506 6.23604 13.7591 6.20408 13.7778L2.76305 15.764C2.75656 15.7678 2.75113 15.7733 2.74729 15.7797C2.74345 15.7862 2.74133 15.7936 2.74112 15.801C2.74092 15.8085 2.74264 15.8159 2.74613 15.8225C2.74961 15.8291 2.75474 15.8346 2.76102 15.8386C3.01998 16.0033 3.41384 16.2318 4.03751 16.5748C4.1401 16.6308 4.15885 16.714 4.09377 16.8242C3.85018 17.2373 3.63416 17.6032 3.4457 17.9218C3.39056 18.0153 3.34424 18.0802 3.30673 18.1163C3.2838 18.1389 3.25389 18.1532 3.22181 18.1567C3.18972 18.1603 3.15732 18.153 3.1298 18.136C2.22276 17.5697 1.31641 17.0109 0.410731 16.4595C0.105675 16.2738 -0.0294542 16.0033 0.00534477 15.6481C0.0338167 15.3579 0.221597 15.2169 0.487334 15.0658C3.27125 13.4808 5.16441 12.396 6.1668 11.8112C6.42034 11.6638 6.65738 11.6826 6.87792 11.8674C7.74518 12.5937 8.52115 13.2119 9.20584 13.7222C9.41327 13.8767 9.39158 13.9913 9.39158 14.278C9.39339 20.9003 9.3909 25.1078 9.38412 26.9006C9.38367 26.949 9.38729 26.9865 9.39497 27.0131Z" fill="white"/>
<path d="M6.22978 23.9842C6.22978 24.0029 6.22235 24.0208 6.20913 24.034C6.19591 24.0473 6.17797 24.0547 6.15928 24.0547C5.10446 24.0542 4.07495 24.0531 3.07075 24.0513C2.85518 24.0508 2.69813 24.0294 2.59961 23.9869C2.28642 23.852 2.12169 23.4995 2.16101 23.1741C2.17276 23.076 2.24032 22.9233 2.3637 22.7158C3.42304 20.9334 4.45119 19.1663 5.44816 17.4146C5.45337 17.4054 5.46181 17.3985 5.47188 17.395C5.5347 17.3755 5.61153 17.3904 5.70237 17.4397C6.18368 17.7032 6.57596 17.9249 6.87921 18.1047C6.90496 18.1199 6.92461 18.1435 6.93477 18.1716C6.94492 18.1997 6.94493 18.2305 6.9348 18.2586C6.9009 18.3531 6.85774 18.4455 6.80532 18.5359C6.27203 19.4529 5.56069 20.6681 4.67128 22.1816C4.6636 22.1952 4.65411 22.2173 4.64281 22.2481C4.64018 22.2552 4.6393 22.2628 4.64027 22.2703C4.64123 22.2778 4.64399 22.2849 4.64832 22.2911C4.65266 22.2973 4.65842 22.3024 4.66514 22.3059C4.67185 22.3093 4.67931 22.3111 4.68687 22.3111H6.15589C6.17548 22.3111 6.19428 22.3188 6.20814 22.3326C6.22199 22.3463 6.22978 22.3649 6.22978 22.3843V23.9842Z" fill="white"/>
<path d="M27.3627 22.1735C27.3773 22.1636 27.3879 22.1487 27.3924 22.1315C27.3968 22.1143 27.395 22.096 27.3871 22.08L26.737 20.7859C26.7285 20.7695 26.7268 20.7504 26.7324 20.7328C26.738 20.7151 26.7504 20.7004 26.7668 20.6916L28.1145 19.9819C28.1368 19.9699 28.1631 19.9673 28.1874 19.9747C28.2118 19.9821 28.2324 19.9988 28.2446 20.0212C28.909 21.227 29.3763 22.063 29.6465 22.5294C29.788 22.7735 29.8639 22.954 29.8743 23.0711C29.9075 23.4365 29.7021 23.812 29.3123 23.8805C29.249 23.8913 29.0843 23.8986 28.8181 23.9022C28.7006 23.9035 24.1736 23.9063 15.237 23.9103C15.1295 23.9103 15.0558 23.9347 15.016 23.9835C14.7544 24.3053 14.476 24.6425 14.1809 24.995C14.0701 25.1269 14.0102 25.2053 14.0012 25.2302C13.9709 25.312 13.9876 25.4044 14.0514 25.5075C14.5431 26.3038 15.1841 27.3755 15.9746 28.7228C15.979 28.73 15.9852 28.736 15.9926 28.7402C16 28.7443 16.0083 28.7465 16.0168 28.7464C16.0253 28.7463 16.0336 28.7441 16.0409 28.7398C16.0483 28.7355 16.0544 28.7294 16.0586 28.7221L16.7867 27.4612C16.7986 27.4407 16.8181 27.4258 16.841 27.4197C16.8639 27.4136 16.8882 27.4168 16.9087 27.4286C17.3738 27.6989 17.8067 27.945 18.2076 28.1669C18.3355 28.2374 18.3631 28.3357 18.2903 28.4618C18.1565 28.6936 17.6495 29.5328 16.7691 30.9795C16.6439 31.1847 16.5329 31.3194 16.4362 31.3835C16.0363 31.6486 15.5936 31.5042 15.3557 31.1015C13.8078 28.4789 12.6985 26.6224 12.0278 25.5319C11.8823 25.2951 11.8902 25.0802 12.0516 24.8872C12.6305 24.1948 13.3163 23.3212 14.109 22.2664C14.1551 22.2054 14.2441 22.1753 14.3761 22.1762C17.0271 22.1921 21.342 22.1916 27.3206 22.1749C27.3468 22.1749 27.3609 22.1744 27.3627 22.1735Z" fill="white"/>
<path d="M22.6683 26.929V25.3848C22.6683 25.3715 22.6736 25.3587 22.683 25.3493C22.6924 25.3399 22.7052 25.3346 22.7185 25.3346H24.3177C24.3425 25.3346 24.3663 25.3444 24.3838 25.3618C24.4013 25.3792 24.4112 25.4028 24.4112 25.4275C24.4112 26.1451 24.4128 27.0725 24.416 28.2096C24.4169 28.5955 24.4083 28.8179 24.3902 28.8766C24.2255 29.4061 23.6587 29.5552 23.1978 29.2963C21.3046 28.2329 19.4682 27.2052 17.6884 26.2132C17.5836 26.1549 17.5553 26.0796 17.6037 25.9874C17.8627 25.4926 18.0805 25.0858 18.2572 24.7672C18.3273 24.6407 18.4292 24.6153 18.5629 24.6913C20.1031 25.5671 21.4524 26.3243 22.6107 26.9629C22.6166 26.9662 22.6233 26.968 22.63 26.9679C22.6368 26.9678 22.6434 26.966 22.6493 26.9626C22.6551 26.9591 22.6599 26.9542 22.6633 26.9483C22.6666 26.9425 22.6684 26.9358 22.6683 26.929Z" fill="white"/>
</svg>
